<?xml version="1.0" encoding="utf-8"?>
<!-- Generator: Adobe Illustrator 18.1.1, SVG Export Plug-In . SVG Version: 6.00 Build 0)  -->
<!DOCTYPE svg PUBLIC "-//W3C//DTD SVG 1.1//EN" "http://www.w3.org/Graphics/SVG/1.1/DTD/svg11.dtd">
<svg version="1.1" xmlns="http://www.w3.org/2000/svg" xmlns:xlink="http://www.w3.org/1999/xlink" x="0px" y="0px"
	 viewBox="0 0 28 28" enable-background="new 0 0 28 28" xml:space="preserve">
<g id="Calque_1" display="none">
	
		<path id="gps" display="inline" fill="none" stroke="#363636" stroke-width="2" stroke-linecap="round" stroke-linejoin="round" stroke-miterlimit="10" d="
		M26.5,1.2L1.2,12.7l11.8,2.4l2.4,11.8L26.8,1.5C26.9,1.3,26.7,1.1,26.5,1.2z"/>
</g>
<g id="Calque_2" display="none">
	<g id="compass" display="inline">
		
			<circle fill="none" stroke="#FFFFFF" stroke-width="2" stroke-linecap="round" stroke-linejoin="round" stroke-miterlimit="10" cx="14" cy="14" r="12.3"/>
		
			<line fill="none" stroke="#FFFFFF" stroke-width="2" stroke-linecap="round" stroke-linejoin="round" stroke-miterlimit="10" x1="14" y1="2.4" x2="14" y2="5.5"/>
		
			<line fill="none" stroke="#FFFFFF" stroke-width="2" stroke-linecap="round" stroke-linejoin="round" stroke-miterlimit="10" x1="2.4" y1="14" x2="5.5" y2="14"/>
		
			<line fill="none" stroke="#FFFFFF" stroke-width="2" stroke-linecap="round" stroke-linejoin="round" stroke-miterlimit="10" x1="14" y1="25.6" x2="14" y2="22.5"/>
		
			<line fill="none" stroke="#FFFFFF" stroke-width="2" stroke-linecap="round" stroke-linejoin="round" stroke-miterlimit="10" x1="25.6" y1="14" x2="22.5" y2="14"/>
		
			<polygon fill="none" stroke="#FFFFFF" stroke-width="2" stroke-linecap="round" stroke-linejoin="round" stroke-miterlimit="10" points="
			19.3,8.7 12.2,12.2 8.7,19.3 15.8,15.8 		"/>
	</g>
</g>
<g id="Calque_3" display="none">
	<g display="inline">
		<path fill="#FFFFFF" d="M27.5,7.4L24,4c0,0,0,0,0,0c0,0,0,0,0,0l-3.5-3.5c-0.2-0.2-0.4-0.3-0.7-0.3c-0.3,0-0.5,0.1-0.7,0.3
			L2.3,17.3C2.1,17.5,2,17.6,2,17.8l-1.8,8.8c-0.1,0.3,0,0.7,0.3,0.9c0.2,0.2,0.4,0.3,0.7,0.3c0.1,0,0.1,0,0.2,0l8.8-1.8
			c0.2,0,0.4-0.1,0.5-0.3L27.5,8.9C27.9,8.5,27.9,7.8,27.5,7.4z M3.6,20.1l4.3,4.3l-5.5,1.1L3.6,20.1z M10,23.6L4.4,18L19.9,2.6
			l2.1,2.1L12.6,14c-0.4,0.4-0.4,1,0,1.4c0.2,0.2,0.5,0.3,0.7,0.3s0.5-0.1,0.7-0.3l9.3-9.3l2.1,2.1L10,23.6z"/>
	</g>
	<path id="heart" display="inline" fill="none" stroke="#363636" stroke-width="2" stroke-miterlimit="10" d="M22.1,3
		C19.2,1.7,16,2.6,14,5c-2-2.4-5.2-3.3-8.1-2.1C2,4.6,0.1,9.4,1.6,13.7C4.3,21.5,14,26.2,14,26.2s9.7-4.7,12.4-12.5
		C27.9,9.5,26,4.6,22.1,3z"/>
</g>
<g id="Calque_4">
	<path id="talk" fill="none" stroke="#363636" stroke-width="2" stroke-miterlimit="10" d="M24.2,1.6H3.8C2.5,1.6,1.4,2.7,1.4,4
		v10.5V21v5.3c0,0.4,0.5,0.6,0.8,0.3l5.2-5.8c0.2-0.2,0.5-0.4,0.8-0.4h16c1.3,0,2.4-1.1,2.4-2.4V4C26.6,2.7,25.5,1.6,24.2,1.6z"/>
</g>
</svg>
