<?xml version="1.0" encoding="utf-8"?>
<!-- Generator: Adobe Illustrator 18.1.1, SVG Export Plug-In . SVG Version: 6.00 Build 0)  -->
<!DOCTYPE svg PUBLIC "-//W3C//DTD SVG 1.1//EN" "http://www.w3.org/Graphics/SVG/1.1/DTD/svg11.dtd">
<svg version="1.1" id="Calque_1" xmlns="http://www.w3.org/2000/svg" xmlns:xlink="http://www.w3.org/1999/xlink" x="0px" y="0px"
	 viewBox="0 0 28 28" enable-background="new 0 0 28 28" xml:space="preserve">
<g id="chart">
	<polyline fill="none" stroke="#B3E5FC" stroke-width="2" stroke-miterlimit="10" points="1.3,0.4 1.3,26.7 27.6,26.7 	"/>
	<path fill="none" stroke="#B3E5FC" stroke-width="2" stroke-miterlimit="10" d="M10.2,19.3c0.1,0.3,0.1,0.5,0.1,0.8
		c0,1.3-1.1,2.4-2.4,2.4c-0.7,0-1.3-0.3-1.7-0.7c-0.4-0.4-0.7-1-0.7-1.7c0-1.3,1.1-2.4,2.4-2.4C8.9,17.7,9.8,18.4,10.2,19.3z"/>
	<line fill="none" stroke="#B3E5FC" stroke-width="2" stroke-miterlimit="10" x1="10.2" y1="19.3" x2="14.6" y2="17.7"/>
	<path fill="none" stroke="#B3E5FC" stroke-width="2" stroke-miterlimit="10" d="M18.2,14.8c0.7,0.4,1.1,1.2,1.1,2
		c0,1.3-1.1,2.4-2.4,2.4c-1,0-1.9-0.7-2.3-1.6c-0.1-0.3-0.1-0.5-0.1-0.8c0-1.3,1.1-2.4,2.4-2.4C17.4,14.4,17.8,14.6,18.2,14.8z"/>
	<line fill="none" stroke="#B3E5FC" stroke-width="2" stroke-miterlimit="10" x1="18.2" y1="14.8" x2="23" y2="7.4"/>
	<path fill="none" stroke="#B3E5FC" stroke-width="2" stroke-miterlimit="10" d="M26.7,5.4c0,1.3-1.1,2.4-2.4,2.4
		c-0.5,0-0.9-0.1-1.3-0.4c-0.7-0.4-1.1-1.2-1.1-2c0-1.3,1.1-2.4,2.4-2.4C25.6,2.9,26.7,4,26.7,5.4z"/>
	<line fill="none" stroke="#B3E5FC" stroke-width="2" stroke-miterlimit="10" x1="1.3" y1="26.7" x2="6.2" y2="21.8"/>
</g>
</svg>
