<?xml version="1.0" encoding="utf-8"?>
<!-- Generator: Adobe Illustrator 18.1.1, SVG Export Plug-In . SVG Version: 6.00 Build 0)  -->
<!DOCTYPE svg PUBLIC "-//W3C//DTD SVG 1.1//EN" "http://www.w3.org/Graphics/SVG/1.1/DTD/svg11.dtd">
<svg version="1.1" id="Calque_1" xmlns="http://www.w3.org/2000/svg" xmlns:xlink="http://www.w3.org/1999/xlink" x="0px" y="0px"
	 viewBox="0 0 28 28" enable-background="new 0 0 28 28" xml:space="preserve">
<g id="settings">
	<circle fill="none" stroke="#B3E5FC" stroke-width="2" stroke-miterlimit="10" cx="14" cy="14" r="4.7"/>
	<path fill="none" stroke="#B3E5FC" stroke-width="2" stroke-miterlimit="10" d="M26.1,12l-2.9-0.1C23,10.8,22.6,9.9,22,9l2-2.2
		c0.2-0.2,0.2-0.5,0-0.7L21.8,4c-0.2-0.2-0.5-0.2-0.7,0L19,6c-0.8-0.5-1.8-0.9-2.8-1.2L16,1.9c0-0.3-0.2-0.5-0.5-0.5h-3.1
		c-0.3,0-0.5,0.2-0.5,0.5l-0.1,2.9C10.8,5,9.9,5.4,9,6L6.9,4C6.7,3.8,6.4,3.8,6.2,4L4,6.2C3.8,6.4,3.8,6.7,4,6.9L6,9
		C5.4,9.9,5,10.8,4.8,11.8L1.9,12c-0.3,0-0.5,0.2-0.5,0.5v3.1c0,0.3,0.2,0.5,0.5,0.5l2.9,0.1C5,17.2,5.4,18.1,6,19l-2,2.2
		c-0.2,0.2-0.2,0.5,0,0.7L6.2,24c0.2,0.2,0.5,0.2,0.7,0L9,22c0.8,0.5,1.8,0.9,2.8,1.2l0.1,2.9c0,0.3,0.2,0.5,0.5,0.5h3.1
		c0.3,0,0.5-0.2,0.5-0.5l0.1-2.9c1-0.2,1.9-0.6,2.8-1.2l2.2,2c0.2,0.2,0.5,0.2,0.7,0l2.2-2.2c0.2-0.2,0.2-0.5,0-0.7L22,19
		c0.5-0.8,0.9-1.8,1.2-2.8l2.9-0.1c0.3,0,0.5-0.2,0.5-0.5v-3.1C26.6,12.2,26.4,12,26.1,12z"/>
</g>
</svg>
