<?xml version="1.0" encoding="utf-8"?>
<!-- Generator: Adobe Illustrator 18.1.1, SVG Export Plug-In . SVG Version: 6.00 Build 0)  -->
<!DOCTYPE svg PUBLIC "-//W3C//DTD SVG 1.1//EN" "http://www.w3.org/Graphics/SVG/1.1/DTD/svg11.dtd">
<svg version="1.1" id="Calque_1" xmlns="http://www.w3.org/2000/svg" xmlns:xlink="http://www.w3.org/1999/xlink" x="0px" y="0px"
	 viewBox="0 0 28 28" enable-background="new 0 0 28 28" xml:space="preserve">
<g id="Calque_1_1_" display="none">
	
		<path id="gps" display="inline" fill="none" stroke="#363636" stroke-width="2" stroke-linecap="round" stroke-linejoin="round" stroke-miterlimit="10" d="
		M26.5,1.2L1.2,12.7L13,15.1l2.4,11.8L26.8,1.5C26.9,1.3,26.7,1.1,26.5,1.2z"/>
</g>
<g id="Calque_3">
	<g>
		<path fill="#FFFFFF" d="M27.5,7.4L24,4l0,0l0,0l-3.5-3.5c-0.2-0.2-0.4-0.3-0.7-0.3c-0.3,0-0.5,0.1-0.7,0.3L2.3,17.3
			C2.1,17.5,2,17.6,2,17.8l-1.8,8.8c-0.1,0.3,0,0.7,0.3,0.9c0.2,0.2,0.4,0.3,0.7,0.3c0.1,0,0.1,0,0.2,0l8.8-1.8
			c0.2,0,0.4-0.1,0.5-0.3L27.5,8.9C27.9,8.5,27.9,7.8,27.5,7.4z M3.6,20.1l4.3,4.3l-5.5,1.1L3.6,20.1z M10,23.6L4.4,18L19.9,2.6
			L22,4.7L12.6,14c-0.4,0.4-0.4,1,0,1.4c0.2,0.2,0.5,0.3,0.7,0.3s0.5-0.1,0.7-0.3l9.3-9.3l2.1,2.1L10,23.6z"/>
	</g>
</g>
</svg>
