<?xml version="1.0" encoding="utf-8"?>
<!-- Generator: Adobe Illustrator 18.1.1, SVG Export Plug-In . SVG Version: 6.00 Build 0)  -->
<!DOCTYPE svg PUBLIC "-//W3C//DTD SVG 1.1//EN" "http://www.w3.org/Graphics/SVG/1.1/DTD/svg11.dtd">
<svg version="1.1" id="Calque_1" xmlns="http://www.w3.org/2000/svg" xmlns:xlink="http://www.w3.org/1999/xlink" x="0px" y="0px"
	 viewBox="0 0 226.1 253.1" enable-background="new 0 0 226.1 253.1" xml:space="preserve">
<g>
	<g>
		
			<linearGradient id="SVGID_1_" gradientUnits="userSpaceOnUse" x1="91.0632" y1="418.9446" x2="214.9689" y2="248.403" gradientTransform="matrix(1 0 0 1 -77.1136 -187.4267)">
			<stop  offset="0" style="stop-color:#E3378C"/>
			<stop  offset="0.36" style="stop-color:#ED6A60"/>
			<stop  offset="1" style="stop-color:#EAE200"/>
		</linearGradient>
		<path fill="url(#SVGID_1_)" d="M149.2,126.7c-10.5,0-19,8.4-19,18.7c0,10.3,8.5,18.7,19,18.7c10.5,0,19-8.4,19-18.7
			C168.2,135.1,159.7,126.7,149.2,126.7z M149.2,153.4c-4.5,0-8.1-3.6-8.1-8c0-4.4,3.7-8,8.1-8c4.5,0,8.1,3.6,8.1,8
			C157.3,149.9,153.6,153.4,149.2,153.4z M172,99.4l-21.5-21.2l-24.6,24.2c-9.7-7.1-21.3-11-33.4-11c-14.3,0-27.4,5.3-38,15V34.4
			c0-10.3-8.4-18.7-18.7-18.9c-10.6,0.2-19.2,8.6-19.2,18.9V224c0,10.3,8.1,18.4,18.7,18.4h0c5.3,0,10.1-2,13.6-5.4
			c3.5,3.4,8.3,5.8,13.6,5.8c10.5,0,19.2-8.4,19.2-18.7v-24.4c4,0.8,8.6,1.2,12.6,1V224c0,10.3,8.4,18.7,18.9,18.7
			c5.5,0,10.3-2.2,13.8-5.8c3.5,3.6,8.5,5.8,13.9,5.8c10.5,0,19.2-8.4,19.2-18.7v-30.9c7.3-1.4,14.2-4.4,20.2-8.9
			c1.7-1.3,3.1-2.7,4.6-4.2c5.8-5.7,10.2-12.9,12.4-20.6c0.2-0.5,0.6-1.1,0.6-1.6v0l17.1-40.6L172,99.4z M71,224c0,4.4-3.9,8-8.4,8
			c-4.3,0-8-3.3-8.3-7.4c0-0.2,0.1-38.8,0.1-38.8c5.3,4.5,10.6,8,16.6,10.5V224z M121.5,224c0,4.4-3.5,8-8.1,8c-4.5,0-7.9-3.6-7.9-8
			v-35.4l-6.5,0.9c-2.2,0.3-4.6,0.5-6.8,0.5c-11.8,0-22.9-4.6-31.3-12.8l-17.3-17.3v5.4c0,0-0.2,59.2-0.2,59.3
			c-0.3,4.1-4,7.4-8.3,7.4h0c-4.6,0-8.1-3.5-8.1-7.9h0V34.4c0-4.4,3.6-8.7,8.1-8.7h0c4.4,0,8.5,4.2,8.5,8.7v97.8l17.4-17.2
			c8.4-8.3,19.4-12.9,31.2-12.9c9.2,0,18.1,2.8,25.7,7.9l-2,2c-19,18.7-18.9,49.1,0.1,67.8c1.7,1.7,4.1,3.2,5.4,4.5V224z M148.8,224
			c0,4.4-3.5,8-8,8c-4.5,0-8-3.6-8-8v-33.5c5.3,2,10.6,3.2,16,3.4V224z M184.9,161.3c-0.1,0.2-0.2,0.4-0.3,0.7
			c-0.7,1.5-1.6,3-2.5,4.4l0,0c-1.4,2.1-3,4-4.8,5.8c0,0-0.1,0.1-0.1,0.1c-0.4-1-0.7-2.1-0.7-3.2c0-4.4,3.7-8,8.1-8
			c0.1,0,0.2,0,0.4,0C184.9,161.2,184.9,161.3,184.9,161.3z M187.9,150.6c-1.1-0.2-2.2-0.3-3.3-0.3c-10.5,0-19,8.4-19,18.7
			c0,3.5,1,6.8,2.8,9.7c-5.5,2.9-11.7,4.5-17.9,4.5c-5.2,0-10.2-1-14.8-3c-3.4-1.4-6.5-3.3-9.4-5.7c-0.9-0.7-1.7-1.5-2.5-2.3
			c-14.7-14.5-14.7-38.1,0-52.6l2.4-2.4l7.7-7.6l16.6-16.3l7.6,7.4l8.3,8.2l10.8,10.7c7.1,7,11.1,16.4,11.1,26.3
			C188.2,147.5,188.1,149.1,187.9,150.6z M196.9,131.6c-1.5-4.6-3.6-9-6.5-13l10.2,4.2L196.9,131.6z M35.3,15.5L35.3,15.5
			C35.4,15.5,35.4,15.5,35.3,15.5C35.4,15.5,35.4,15.5,35.3,15.5z M35.8,15.6l-0.3,0l-0.1,0c0.1,0,0.2,0,0.2,0
			C35.7,15.6,35.7,15.6,35.8,15.6L35.8,15.6z"/>
	</g>
</g>
</svg>
