<?xml version="1.0" encoding="utf-8"?>
<!-- Generator: Adobe Illustrator 18.1.1, SVG Export Plug-In . SVG Version: 6.00 Build 0)  -->
<!DOCTYPE svg PUBLIC "-//W3C//DTD SVG 1.1//EN" "http://www.w3.org/Graphics/SVG/1.1/DTD/svg11.dtd">
<svg version="1.1" id="Calque_1" xmlns="http://www.w3.org/2000/svg" xmlns:xlink="http://www.w3.org/1999/xlink" x="0px" y="0px"
	 viewBox="43.7 128.6 522.4 597.9" enable-background="new 43.7 128.6 522.4 597.9" xml:space="preserve">
<g>
	<g>
		
			<linearGradient id="SVGID_1_" gradientUnits="userSpaceOnUse" x1="91.1065" y1="422.9445" x2="214.9146" y2="593.3517" gradientTransform="matrix(2.6328 0 0 -2.6328 -203.026 1810.8444)">
			<stop  offset="0" style="stop-color:#E3378C"/>
			<stop  offset="0.36" style="stop-color:#ED6A60"/>
			<stop  offset="1" style="stop-color:#EAE200"/>
		</linearGradient>
		<path fill="url(#SVGID_1_)" d="M392.8,421.3c-27.6,0-50,22.1-50,49.2c0,27.1,22.4,49.2,50,49.2c27.6,0,50-22.1,50-49.2
			S420.5,421.3,392.8,421.3z M392.8,491.6c-11.8,0-21.3-9.5-21.3-21.1s9.7-21.1,21.3-21.1c11.8,0,21.3,9.5,21.3,21.1
			C414.1,482.4,404.4,491.6,392.8,491.6z M452.8,349.5l-56.6-55.8l-64.8,63.7c-25.5-18.7-56.1-29-87.9-29c-37.6,0-72.1,14-100,39.5
			V178.3c0-27.1-22.1-49.2-49.2-49.8c-27.9,0.5-50.6,22.6-50.6,49.8v499.2c0,27.1,21.3,48.4,49.2,48.4l0,0c14,0,26.6-5.3,35.8-14.2
			c9.2,9,21.9,15.3,35.8,15.3c27.6,0,50.6-22.1,50.6-49.2v-64.2c10.5,2.1,22.6,3.2,33.2,2.6v61.3c0,27.1,22.1,49.2,49.8,49.2
			c14.5,0,27.1-5.8,36.3-15.3c9.2,9.5,22.4,15.3,36.6,15.3c27.6,0,50.6-22.1,50.6-49.2v-81.4c19.2-3.7,37.4-11.6,53.2-23.4
			c4.5-3.4,8.2-7.1,12.1-11.1c15.3-15,26.9-34,32.6-54.2c0.5-1.3,1.6-2.9,1.6-4.2l0,0l45-106.9L452.8,349.5z M186.9,677.5
			c0,11.6-10.3,21.1-22.1,21.1c-11.3,0-21.1-8.7-21.9-19.5c0-0.5,0.3-102.2,0.3-102.2c14,11.8,27.9,21.1,43.7,27.6V677.5z
			 M319.9,677.5c0,11.6-9.2,21.1-21.3,21.1c-11.8,0-20.8-9.5-20.8-21.1v-93.2l-17.1,2.4c-5.8,0.8-12.1,1.3-17.9,1.3
			c-31.1,0-60.3-12.1-82.4-33.7l-45.5-45.5V523c0,0-0.5,155.9-0.5,156.1c-0.8,10.8-10.5,19.5-21.9,19.5l0,0
			c-12.1,0-21.3-9.2-21.3-20.8l0,0V178.3c0-11.6,9.5-22.9,21.3-22.9l0,0c11.6,0,22.4,11.1,22.4,22.9v257.5l45.8-45.3
			c22.1-21.9,51.1-34,82.1-34c24.2,0,47.7,7.4,67.7,20.8l-5.3,5.3c-50,49.2-49.8,129.3,0.3,178.5c4.5,4.5,10.8,8.4,14.2,11.8v104.5
			H319.9z M391.8,677.5c0,11.6-9.2,21.1-21.1,21.1s-21.1-9.5-21.1-21.1v-88.2c14,5.3,27.9,8.4,42.1,9V677.5z M486.8,512.4
			c-0.3,0.5-0.5,1.1-0.8,1.8c-1.8,3.9-4.2,7.9-6.6,11.6l0,0c-3.7,5.5-7.9,10.5-12.6,15.3l-0.3,0.3c-1.1-2.6-1.8-5.5-1.8-8.4
			c0-11.6,9.7-21.1,21.3-21.1c0.3,0,0.5,0,1.1,0C486.8,512.2,486.8,512.4,486.8,512.4z M494.7,484.3c-2.9-0.5-5.8-0.8-8.7-0.8
			c-27.6,0-50,22.1-50,49.2c0,9.2,2.6,17.9,7.4,25.5c-14.5,7.6-30.8,11.8-47.1,11.8c-13.7,0-26.9-2.6-39-7.9
			c-9-3.7-17.1-8.7-24.7-15c-2.4-1.8-4.5-3.9-6.6-6.1c-38.7-38.2-38.7-100.3,0-138.5l6.3-6.3l20.3-20l43.7-42.9l20,19.5l21.9,21.6
			l28.4,28.2c18.7,18.4,29.2,43.2,29.2,69.2C495.5,476.1,495.2,480.3,494.7,484.3z M518.4,434.2c-3.9-12.1-9.5-23.7-17.1-34.2
			l26.9,11.1L518.4,434.2z M92.9,128.6L92.9,128.6C93.2,128.6,93.2,128.6,92.9,128.6C93.2,128.6,93.2,128.6,92.9,128.6z M94.3,128.8
			h-0.8h-0.3c0.3,0,0.5,0,0.5,0C94,128.8,94,128.8,94.3,128.8L94.3,128.8z"/>
	</g>
</g>
</svg>
